<?xml version="1.0" standalone="no"?>
<!DOCTYPE svg PUBLIC "-//W3C//DTD SVG 20010904//EN"
 "http://www.w3.org/TR/2001/REC-SVG-20010904/DTD/svg10.dtd">
<svg version="1.0" xmlns="http://www.w3.org/2000/svg"
 width="241.000000pt" height="209.000000pt" viewBox="0 0 241.000000 209.000000"
 preserveAspectRatio="xMidYMid meet">

<g transform="translate(0.000000,209.000000) scale(0.100000,-0.100000)"
fill="#fff" stroke="none">
<path d="M1000 2078 c-311 -34 -444 -53 -460 -67 -10 -10 -35 -87 -64 -198
l-46 -181 0 -806 c0 -912 -9 -827 87 -807 108 21 199 84 236 163 10 21 65 236
122 478 58 243 107 445 110 451 4 5 15 9 26 9 10 0 19 2 19 4 0 2 47 199 105
438 82 336 103 438 96 455 -22 48 -119 74 -231 61z"/>
<path d="M1983 1894 c-123 -19 -234 -39 -247 -44 -19 -7 -27 -21 -37 -64 -11
-50 -10 -59 10 -105 41 -97 15 -201 -71 -276 -24 -22 -50 -55 -56 -74 -9 -25
-12 -209 -12 -666 l0 -633 30 -12 c45 -19 164 -8 222 20 61 28 125 91 148 143
10 23 62 224 115 447 52 223 139 586 191 808 54 227 94 412 90 425 -7 28 -57
53 -117 61 -27 3 -133 -9 -266 -30z"/>
<path d="M1298 1843 l-28 -4 0 -239 0 -239 46 -7 c134 -20 259 39 314 147 27
51 27 146 1 198 -24 46 -88 105 -138 126 -39 17 -147 27 -195 18z"/>
<path d="M1253 1080 c-108 -3 -196 -9 -201 -15 -5 -5 -23 -67 -41 -137 l-31
-127 0 -364 0 -364 25 -11 c66 -30 166 -2 221 60 29 33 40 73 143 492 62 250
110 460 106 466 -3 5 -12 9 -18 8 -7 -1 -98 -5 -204 -8z"/>
<path d="M120 1058 c-5 -13 -18 -67 -30 -120 -17 -85 -20 -134 -20 -390 0
-290 0 -293 24 -332 13 -21 26 -35 29 -30 5 10 227 874 227 887 0 4 -50 7
-110 7 -105 0 -111 -1 -120 -22z"/>
</g>
</svg>
